<svg width="32" height="32" viewBox="0 0 32 32" fill="none" xmlns="http://www.w3.org/2000/svg">
<rect width="32" height="32" rx="4" fill="#EEEEEE"/>
<path d="M4.94349 20.9805C4.25934 20.1301 3.93221 19.1128 4.01373 18.0891V13.9109C3.92743 12.8797 4.24961 11.8534 4.93021 10.9917C5.54562 10.3269 6.59713 9.99632 8.08473 10C9.57234 10.0037 10.5796 10.2953 11.1064 10.8747C11.7489 11.5927 12.0623 12.4804 11.9897 13.3761V14.3566H9.24029V13.2925C9.23658 13.0125 9.20772 12.7332 9.15395 12.4568C9.12071 12.2568 9.01122 12.0711 8.84182 11.9276C8.73725 11.8524 8.61585 11.7954 8.48471 11.76C8.35357 11.7246 8.21534 11.7115 8.07809 11.7215C7.88099 11.6968 7.67961 11.7237 7.50136 11.7984C7.32311 11.8732 7.17666 11.9922 7.08193 12.1393C6.90731 12.5305 6.83045 12.9477 6.85613 13.3649V18.6685C6.82583 19.0885 6.91459 19.5085 7.11513 19.8942C7.21095 20.0333 7.35314 20.1459 7.52421 20.2181C7.69529 20.2904 7.8878 20.3191 8.07809 20.3008C8.26508 20.323 8.45564 20.2951 8.6226 20.2211C8.78955 20.147 8.92438 20.0307 9.00785 19.8886C9.16849 19.4966 9.23837 19.0825 9.21372 18.6685V17.5543H11.9631V18.5181C12.0441 19.427 11.7562 20.3321 11.1463 21.0864C10.5619 21.6992 9.55242 22 8.11794 22C6.68346 22 5.56111 21.6657 4.94349 20.9805Z" fill="#111111"/>
<path d="M14.5247 10H17.4941L20 22H17.5317L17.0869 19.3486H15.007L14.5059 21.9829H12L14.5247 10ZM16.8113 17.84L16.0219 13.0171L15.2388 17.84H16.8113Z" fill="#111111"/>
<path d="M21.8134 11.8083H20V10H26V11.8083H24.209V22H21.8078L21.8134 11.8083Z" fill="#111111"/>
</svg>
